<svg width="95" height="91" viewBox="0 0 95 91" fill="none" xmlns="http://www.w3.org/2000/svg">
<path d="M31.6475 52.306H34.8176C35.693 52.306 36.4026 51.5963 36.4026 50.7211C36.4026 49.8457 35.693 49.1361 34.8176 49.1361H31.6475C30.7721 49.1361 30.0625 49.8458 30.0625 50.7211C30.0625 51.5965 30.7721 52.306 31.6475 52.306Z" fill="#FF3D00" fill-opacity="0.74"/>
<path d="M44.3787 42.7958H53.8889C54.7643 42.7958 55.4739 42.0863 55.4739 41.2108C55.4739 40.3354 54.7643 39.6259 53.8889 39.6259H44.3787C43.5033 39.6259 42.7937 40.3354 42.7937 41.2108C42.7937 42.0863 43.5034 42.7958 44.3787 42.7958Z" fill="#FF3D00" fill-opacity="0.74"/>
<path d="M94.9929 76.9722C94.9865 76.3511 94.968 75.7284 94.9306 75.104C94.8433 73.6423 94.6715 72.1725 94.4172 70.7003L93.9954 68.2536L86.8741 26.9462H75.5766C72.7837 12.1385 63.4841 0 49.0825 0C34.6812 0 25.3838 12.1363 22.5885 26.9462H8.12205L4.51875 47.8468L0.577216 70.7005C0.302126 72.2988 0.127338 73.8929 0.0485817 75.4769C-0.0181012 76.8127 -0.017544 78.1419 0.0589835 79.4601C0.457781 86.3882 1.47846 90.3476 4.70209 90.3476H90.294C93.015 90.3476 94.1657 87.5313 94.6986 82.4866C94.699 82.4833 94.6994 82.4798 94.6996 82.4764C94.7976 81.5453 94.8749 80.5384 94.937 79.4592C94.9788 78.7388 94.999 78.0155 94.9979 77.2893C94.9979 77.1838 94.994 77.0777 94.9929 76.9722ZM90.8756 68.8161L91.2935 71.2399C91.6446 73.2729 91.8246 75.2945 91.8279 77.29C91.8281 77.3738 91.8251 77.4568 91.8246 77.5406C91.8231 77.7891 91.8218 78.0378 91.8149 78.2856C91.8056 78.6164 91.7915 78.9465 91.7724 79.2756C91.7221 80.1518 91.6552 80.9849 91.5714 81.7637C91.5701 81.7756 91.569 81.788 91.5677 81.7999C91.5163 82.2755 91.4579 82.7292 91.3935 83.1611C91.3467 83.4743 91.2967 83.7754 91.243 84.0631C91.1659 84.4762 91.082 84.8631 90.9904 85.2188C90.7812 86.0303 90.5424 86.6409 90.3035 87.004C90.2489 87.0868 90.2214 87.1301 90.2177 87.1526C90.2145 87.1706 90.2266 87.1756 90.2517 87.1771H69.8803C68.7449 84.1682 68.1544 80.9585 68.1544 77.6669C68.1544 65.4253 76.3846 54.8695 87.9234 51.6951L90.8756 68.8161ZM33.2324 45.9659C35.8583 45.9659 37.9875 48.0951 37.9875 50.721C37.9875 53.3469 35.8583 55.4761 33.2324 55.4761C30.6065 55.4761 28.4773 53.3469 28.4773 50.721C28.4773 48.0951 30.6065 45.9659 33.2324 45.9659ZM30.3596 33.2856C30.1952 33.2856 30.0632 33.1535 30.0632 32.9891V30.1162H36.4018V32.9891C36.4018 33.1535 36.2697 33.2856 36.1053 33.2856H30.3596ZM32.3919 26.9455C33.0436 24.4106 33.9557 21.8378 35.1727 19.4333C38.5416 12.7751 43.1774 9.51003 49.0827 9.51003C54.9879 9.51003 59.6236 12.7751 62.9925 19.4332C64.2099 21.8384 65.123 24.4132 65.775 26.946H39.5717V26.9455H32.3919ZM49.0827 3.16995C61.4004 3.16995 69.6708 13.7326 72.347 26.9455H69.0417C68.3293 23.9559 67.281 20.8861 65.8212 18.0018C61.9434 10.3377 56.267 6.34008 49.0829 6.34008C41.8987 6.34008 36.2223 10.3377 32.3445 18.002C30.8849 20.8857 29.838 23.9526 29.1255 26.9455H26.8934H25.8189C28.4969 13.7306 36.7655 3.16995 49.0827 3.16995ZM10.7923 30.1162H26.893V32.9891C26.893 34.9044 28.4444 36.4555 30.3594 36.4555H31.6472V42.9546C28.03 43.689 25.3071 46.887 25.3071 50.7208C25.3071 55.0976 28.8556 58.6461 33.2324 58.6461C37.6091 58.6461 41.1576 55.0976 41.1576 50.7208C41.1576 46.887 38.4347 43.6889 34.8175 42.9546V36.4557H36.1053C38.0205 36.4557 39.5717 34.9044 39.5717 32.9893V30.1162H84.2038L87.3832 48.5588C74.3256 52.0055 64.984 63.8776 64.984 77.6667C64.984 80.9383 65.5082 84.1403 66.5185 87.1775H28.579C29.5893 84.1403 30.1135 80.9381 30.1135 77.6667C30.1135 63.8383 20.7231 51.9406 7.61793 48.5287L10.7923 30.1162ZM3.70259 71.2402L7.0776 51.6635C18.6645 54.8037 26.9434 65.3855 26.9434 77.6667C26.9434 80.9583 26.3527 84.168 25.2174 87.1769H4.74481C4.77007 87.1754 4.78233 87.1706 4.77936 87.1528C4.77601 87.1303 4.74852 87.0874 4.69373 87.004C4.45486 86.6409 4.21599 86.0301 4.00665 85.2186C3.61658 83.7055 3.36044 81.6463 3.2241 79.2764C3.15389 78.0676 3.15352 76.8457 3.21537 75.6157C3.28837 74.1665 3.44941 72.7065 3.70259 71.2402Z" fill="#FF3D00" fill-opacity="0.74"/>
</svg>
